HIERARCHY
ROOT mixamorig:Hips
{
	OFFSET -0.000008 104.274872 1.554316
	CHANNELS 6 Xposition Yposition Zposition Xrotation Yrotation Zrotation
	JOINT mixamorig:Spine
	{
		OFFSET -0.000005 10.181595 0.131519
		CHANNELS 6 Xposition Yposition Zposition Xrotation Yrotation Zrotation
		JOINT mixamorig:Spine1
		{
			OFFSET -0.000000 9.893959 -1.470707
			CHANNELS 6 Xposition Yposition Zposition Xrotation Yrotation Zrotation
			JOINT mixamorig:Spine2
			{
				OFFSET -0.000000 9.220757 -1.370641
				CHANNELS 6 Xposition Yposition Zposition Xrotation Yrotation Zrotation
				JOINT mixamorig:Neck
				{
					OFFSET 0.000001 16.740417 -2.049036
					CHANNELS 6 Xposition Yposition Zposition Xrotation Yrotation Zrotation
					JOINT mixamorig:Head
					{
						OFFSET 0.000000 9.617874 1.685006
						CHANNELS 6 Xposition Yposition Zposition Xrotation Yrotation Zrotation
						JOINT mixamorig:HeadTop_End
						{
							OFFSET 0.000002 22.037354 7.501101
							CHANNELS 6 Xposition Yposition Zposition Xrotation Yrotation Zrotation
							End Site
							{
								OFFSET 0.000168 2310.654297 -282.823242
							}
						}
					}
				}
				JOINT mixamorig:RightShoulder
				{
					OFFSET -4.569970 11.014908 -2.160885
					CHANNELS 6 Xposition Yposition Zposition Xrotation Yrotation Zrotation
					JOINT mixamorig:RightArm
					{
						OFFSET -10.592851 -0.524811 -2.232101
						CHANNELS 6 Xposition Yposition Zposition Xrotation Yrotation Zrotation
						JOINT mixamorig:RightForeArm
						{
							OFFSET -27.841511 0.000031 -0.000004
							CHANNELS 6 Xposition Yposition Zposition Xrotation Yrotation Zrotation
							JOINT mixamorig:RightHand
							{
								OFFSET -28.328831 -0.000015 0.000015
								CHANNELS 6 Xposition Yposition Zposition Xrotation Yrotation Zrotation
								JOINT mixamorig:RightHandThumb1
								{
									OFFSET -2.464806 -1.573990 2.681852
									CHANNELS 6 Xposition Yposition Zposition Xrotation Yrotation Zrotation
									JOINT mixamorig:RightHandThumb2
									{
										OFFSET -3.215179 -1.872803 1.924282
										CHANNELS 6 Xposition Yposition Zposition Xrotation Yrotation Zrotation
										JOINT mixamorig:RightHandThumb3
										{
											OFFSET -2.654831 -1.527969 1.512609
											CHANNELS 6 Xposition Yposition Zposition Xrotation Yrotation Zrotation
											JOINT mixamorig:RightHandThumb4
											{
												OFFSET -2.018814 -1.152008 1.108052
												CHANNELS 6 Xposition Yposition Zposition Xrotation Yrotation Zrotation
												End Site
												{
													OFFSET -188.809540 -114.533607 132.431396
												}
											}
										}
									}
								}
								JOINT mixamorig:RightHandIndex1
								{
									OFFSET -9.108284 -0.517868 2.259835
									CHANNELS 6 Xposition Yposition Zposition Xrotation Yrotation Zrotation
									JOINT mixamorig:RightHandIndex2
									{
										OFFSET -3.699989 0.000000 0.001215
										CHANNELS 6 Xposition Yposition Zposition Xrotation Yrotation Zrotation
										JOINT mixamorig:RightHandIndex3
										{
											OFFSET -2.850006 0.000031 -0.000522
											CHANNELS 6 Xposition Yposition Zposition Xrotation Yrotation Zrotation
											JOINT mixamorig:RightHandIndex4
											{
												OFFSET -2.772186 -0.000015 -0.000020
												CHANNELS 6 Xposition Yposition Zposition Xrotation Yrotation Zrotation
												End Site
												{
													OFFSET -277.218445 0.000000 -0.050231
												}
											}
										}
									}
								}
								JOINT mixamorig:RightHandMiddle1
								{
									OFFSET -9.532516 -0.000031 -0.000023
									CHANNELS 6 Xposition Yposition Zposition Xrotation Yrotation Zrotation
									JOINT mixamorig:RightHandMiddle2
									{
										OFFSET -3.700005 -0.000015 0.003713
										CHANNELS 6 Xposition Yposition Zposition Xrotation Yrotation Zrotation
										JOINT mixamorig:RightHandMiddle3
										{
											OFFSET -2.949974 0.000015 -0.002054
											CHANNELS 6 Xposition Yposition Zposition Xrotation Yrotation Zrotation
											JOINT mixamorig:RightHandMiddle4
											{
												OFFSET -2.946640 0.000000 -0.000156
												CHANNELS 6 Xposition Yposition Zposition Xrotation Yrotation Zrotation
												End Site
												{
													OFFSET -294.664337 0.000000 -0.113670
												}
											}
										}
									}
								}
								JOINT mixamorig:RightHandRing1
								{
									OFFSET -9.103600 -0.043076 -1.865134
									CHANNELS 6 Xposition Yposition Zposition Xrotation Yrotation Zrotation
									JOINT mixamorig:RightHandRing2
									{
										OFFSET -3.379288 0.000000 -0.001055
										CHANNELS 6 Xposition Yposition Zposition Xrotation Yrotation Zrotation
										JOINT mixamorig:RightHandRing3
										{
											OFFSET -2.889687 -0.000015 0.000379
											CHANNELS 6 Xposition Yposition Zposition Xrotation Yrotation Zrotation
											JOINT mixamorig:RightHandRing4
											{
												OFFSET -2.638809 -0.000015 0.000941
												CHANNELS 6 Xposition Yposition Zposition Xrotation Yrotation Zrotation
												End Site
												{
													OFFSET -263.880371 0.000000 0.516020
												}
											}
										}
									}
								}
								JOINT mixamorig:RightHandPinky1
								{
									OFFSET -8.076683 -0.486710 -3.806280
									CHANNELS 6 Xposition Yposition Zposition Xrotation Yrotation Zrotation
									JOINT mixamorig:RightHandPinky2
									{
										OFFSET -3.600014 -0.000015 -0.003747
										CHANNELS 6 Xposition Yposition Zposition Xrotation Yrotation Zrotation
										JOINT mixamorig:RightHandPinky3
										{
											OFFSET -2.099983 0.000000 -0.005739
											CHANNELS 6 Xposition Yposition Zposition Xrotation Yrotation Zrotation
											JOINT mixamorig:RightHandPinky4
											{
												OFFSET -2.115768 -0.000031 -0.003680
												CHANNELS 6 Xposition Yposition Zposition Xrotation Yrotation Zrotation
												End Site
												{
													OFFSET -211.577087 0.000000 -0.350686
												}
											}
										}
									}
								}
							}
						}
					}
				}
				JOINT mixamorig:LeftShoulder
				{
					OFFSET 4.570447 11.014725 -2.160855
					CHANNELS 6 Xposition Yposition Zposition Xrotation Yrotation Zrotation
					JOINT mixamorig:LeftArm
					{
						OFFSET 10.592371 -0.524597 -2.232119
						CHANNELS 6 Xposition Yposition Zposition Xrotation Yrotation Zrotation
						JOINT mixamorig:LeftForeArm
						{
							OFFSET 27.841532 -0.000031 0.000026
							CHANNELS 6 Xposition Yposition Zposition Xrotation Yrotation Zrotation
							JOINT mixamorig:LeftHand
							{
								OFFSET 28.328846 -0.000061 0.000022
								CHANNELS 6 Xposition Yposition Zposition Xrotation Yrotation Zrotation
								JOINT mixamorig:LeftHandThumb1
								{
									OFFSET 2.466141 -1.576172 2.681732
									CHANNELS 6 Xposition Yposition Zposition Xrotation Yrotation Zrotation
									JOINT mixamorig:LeftHandThumb2
									{
										OFFSET 3.217812 -1.872070 1.916482
										CHANNELS 6 Xposition Yposition Zposition Xrotation Yrotation Zrotation
										JOINT mixamorig:LeftHandThumb3
										{
											OFFSET 2.656029 -1.528778 1.514513
											CHANNELS 6 Xposition Yposition Zposition Xrotation Yrotation Zrotation
											JOINT mixamorig:LeftHandThumb4
											{
												OFFSET 2.020889 -1.154053 1.115139
												CHANNELS 6 Xposition Yposition Zposition Xrotation Yrotation Zrotation
												End Site
												{
													OFFSET 190.885437 -115.081749 130.048782
												}
											}
										}
									}
								}
								JOINT mixamorig:LeftHandIndex1
								{
									OFFSET 9.109314 -0.518021 2.259871
									CHANNELS 6 Xposition Yposition Zposition Xrotation Yrotation Zrotation
									JOINT mixamorig:LeftHandIndex2
									{
										OFFSET 3.699989 0.000000 -0.000322
										CHANNELS 6 Xposition Yposition Zposition Xrotation Yrotation Zrotation
										JOINT mixamorig:LeftHandIndex3
										{
											OFFSET 2.850006 0.000000 0.000352
											CHANNELS 6 Xposition Yposition Zposition Xrotation Yrotation Zrotation
											JOINT mixamorig:LeftHandIndex4
											{
												OFFSET 2.774864 -0.000031 -0.000027
												CHANNELS 6 Xposition Yposition Zposition Xrotation Yrotation Zrotation
												End Site
												{
													OFFSET 277.486267 0.000000 -0.009857
												}
											}
										}
									}
								}
								JOINT mixamorig:LeftHandMiddle1
								{
									OFFSET 9.533394 0.000061 0.000044
									CHANNELS 6 Xposition Yposition Zposition Xrotation Yrotation Zrotation
									JOINT mixamorig:LeftHandMiddle2
									{
										OFFSET 3.699989 -0.000015 -0.000231
										CHANNELS 6 Xposition Yposition Zposition Xrotation Yrotation Zrotation
										JOINT mixamorig:LeftHandMiddle3
										{
											OFFSET 2.949997 -0.000015 -0.000059
											CHANNELS 6 Xposition Yposition Zposition Xrotation Yrotation Zrotation
											JOINT mixamorig:LeftHandMiddle4
											{
												OFFSET 2.952896 0.000031 0.000063
												CHANNELS 6 Xposition Yposition Zposition Xrotation Yrotation Zrotation
												End Site
												{
													OFFSET 295.289337 0.000000 0.022810
												}
											}
										}
									}
								}
								JOINT mixamorig:LeftHandRing1
								{
									OFFSET 9.104523 -0.042999 -1.865074
									CHANNELS 6 Xposition Yposition Zposition Xrotation Yrotation Zrotation
									JOINT mixamorig:LeftHandRing2
									{
										OFFSET 3.150009 -0.000031 0.000043
										CHANNELS 6 Xposition Yposition Zposition Xrotation Yrotation Zrotation
										JOINT mixamorig:LeftHandRing3
										{
											OFFSET 2.949982 -0.000015 0.000040
											CHANNELS 6 Xposition Yposition Zposition Xrotation Yrotation Zrotation
											JOINT mixamorig:LeftHandRing4
											{
												OFFSET 2.644348 0.000000 0.000057
												CHANNELS 6 Xposition Yposition Zposition Xrotation Yrotation Zrotation
												End Site
												{
													OFFSET 264.434631 0.000000 0.012105
												}
											}
										}
									}
								}
								JOINT mixamorig:LeftHandPinky1
								{
									OFFSET 8.077789 -0.486847 -3.806259
									CHANNELS 6 Xposition Yposition Zposition Xrotation Yrotation Zrotation
									JOINT mixamorig:LeftHandPinky2
									{
										OFFSET 3.599953 0.000031 0.014727
										CHANNELS 6 Xposition Yposition Zposition Xrotation Yrotation Zrotation
										JOINT mixamorig:LeftHandPinky3
										{
											OFFSET 2.100021 0.000015 0.007705
											CHANNELS 6 Xposition Yposition Zposition Xrotation Yrotation Zrotation
											JOINT mixamorig:LeftHandPinky4
											{
												OFFSET 2.125504 0.000031 0.007517
												CHANNELS 6 Xposition Yposition Zposition Xrotation Yrotation Zrotation
												End Site
												{
													OFFSET 212.550781 0.000000 0.625752
												}
											}
										}
									}
								}
							}
						}
					}
				}
			}
		}
	}
	JOINT mixamorig:RightUpLeg
	{
		OFFSET -8.207787 -6.751648 -1.599560
		CHANNELS 6 Xposition Yposition Zposition Xrotation Yrotation Zrotation
		JOINT mixamorig:RightLeg
		{
			OFFSET -0.000002 -44.370117 0.345942
			CHANNELS 6 Xposition Yposition Zposition Xrotation Yrotation Zrotation
			JOINT mixamorig:RightFoot
			{
				OFFSET 0.000003 -44.423679 -3.043532
				CHANNELS 6 Xposition Yposition Zposition Xrotation Yrotation Zrotation
				JOINT mixamorig:RightToeBase
				{
					OFFSET -0.000002 -8.728671 10.710558
					CHANNELS 6 Xposition Yposition Zposition Xrotation Yrotation Zrotation
					JOINT mixamorig:RightToe_End
					{
						OFFSET -0.000001 -0.000679 9.278119
						CHANNELS 6 Xposition Yposition Zposition Xrotation Yrotation Zrotation
						End Site
						{
							OFFSET 0.000000 -0.067690 927.812134
						}
					}
				}
			}
		}
	}
	JOINT mixamorig:LeftUpLeg
	{
		OFFSET 8.207793 -6.751686 -1.599556
		CHANNELS 6 Xposition Yposition Zposition Xrotation Yrotation Zrotation
		JOINT mixamorig:LeftLeg
		{
			OFFSET -0.000004 -44.370014 0.346954
			CHANNELS 6 Xposition Yposition Zposition Xrotation Yrotation Zrotation
			JOINT mixamorig:LeftFoot
			{
				OFFSET -0.000001 -44.423672 -3.044401
				CHANNELS 6 Xposition Yposition Zposition Xrotation Yrotation Zrotation
				JOINT mixamorig:LeftToeBase
				{
					OFFSET -0.000002 -8.728669 10.710558
					CHANNELS 6 Xposition Yposition Zposition Xrotation Yrotation Zrotation
					JOINT mixamorig:LeftToe_End
					{
						OFFSET -0.000003 -0.000679 9.278133
						CHANNELS 6 Xposition Yposition Zposition Xrotation Yrotation Zrotation
						End Site
						{
							OFFSET 0.000000 -0.068021 927.813477
						}
					}
				}
			}
		}
	}
}
MOTION
Frames: 3
Frame Time: 0.033333
0.000006 104.270477 1.554256 0.000010 0.000003 -0.000113 -0.000005 10.181587 0.131522 0.000001 -0.000003 0.000084 -0.000000 9.893967 -1.470711 0.000001 0.000000 -0.000000 -0.000000 9.220802 -1.370642 0.000000 -0.000000 -0.000000 0.000001 16.740433 -2.049030 0.000000 -0.000000 -0.000000 0.000000 9.617859 1.685014 0.000000 0.000000 0.000000 0.000002 22.037384 7.501101 0.000000 -0.000000 0.000000 -4.569968 11.014880 -2.160881 0.000008 0.000001 -0.000038 -10.592874 -0.524783 -2.231882 73.498122 33.692299 -25.480893 -27.841522 0.000031 0.000550 -54.937776 106.885958 70.069558 -28.328800 0.000007 0.000033 -0.000322 -0.000044 0.000008 -2.464425 -1.573914 2.682378 -31.844531 -154.287102 23.635890 -3.215272 -1.872531 1.924633 152.340485 33.838284 20.855301 -2.654952 -1.527887 1.513076 148.325918 26.567108 -37.988160 -2.018842 -1.152012 1.108063 -0.000005 0.000002 0.000002 -9.108377 -0.517559 2.260179 107.713422 16.422082 -22.415521 -3.700069 0.000307 0.001551 104.454185 11.905828 -15.297537 -2.850070 0.000372 -0.000228 103.732801 9.064476 -11.530314 -2.772180 -0.000015 -0.000017 0.000000 -0.000004 0.000001 -9.532571 0.000261 0.000260 94.711207 17.058124 -18.653014 -3.700059 0.000329 0.003989 95.994402 11.318615 -12.455821 -2.950065 0.000346 -0.001811 97.312041 10.143989 -11.512122 -2.946617 0.000001 -0.000155 0.000001 0.000000 0.000000 -9.103692 -0.042791 -1.864858 89.997052 20.781561 -20.734453 -3.379335 0.000323 -0.000812 91.524419 10.223539 -10.515646 -2.889745 0.000362 0.000618 95.746596 5.107831 -5.695884 -2.638816 -0.000016 0.000943 -0.000000 -0.000001 -0.000000 -8.076742 -0.486410 -3.806060 75.769577 17.524170 -13.557106 -3.600027 0.000271 -0.003572 78.910603 8.043378 -6.331524 -2.099995 0.000305 -0.005525 83.518973 4.325680 -3.670171 -2.115761 -0.000056 -0.003678 -0.000002 -0.000001 -0.000006 4.570446 11.014691 -2.160851 -0.000018 0.000010 -0.000021 10.592421 -0.524466 -2.232368 73.760319 -19.673329 14.824116 27.841820 0.000077 -0.000194 105.630522 -71.904202 87.424727 28.328848 -0.000029 0.000021 0.000022 -0.000089 -0.000000 2.465893 -1.576107 2.681909 -51.116340 169.782302 19.746838 3.217819 -1.871765 1.916381 154.574476 -29.802687 7.220657 2.656100 -1.528644 1.514457 139.488568 -28.057444 43.197173 2.020906 -1.154086 1.115148 -0.000001 0.000001 0.000002 9.109370 -0.517846 2.259722 87.171478 -15.246574 14.508210 3.700048 0.000156 -0.000435 83.911722 -16.185646 14.585362 2.850060 0.000168 0.000222 81.824970 -14.180550 12.303440 2.774894 -0.000033 -0.000026 -0.000003 0.000001 0.000000 9.533462 0.000229 -0.000092 88.717081 -14.005663 13.690014 3.700042 0.000169 -0.000374 88.267867 -14.032312 13.615715 2.950078 0.000153 -0.000191 86.482639 -17.773260 16.732708 2.952875 -0.000015 0.000067 0.000001 -0.000000 -0.000001 9.104595 -0.042830 -1.865223 89.720067 -13.384666 13.321907 3.150053 0.000214 -0.000092 91.852910 -12.743373 13.160573 2.950028 0.000163 -0.000079 92.287283 -14.509624 15.095937 2.644318 0.000015 0.000056 -0.000001 -0.000000 -0.000000 8.077836 -0.486726 -3.806425 77.505339 -16.507691 13.758789 3.600005 0.000176 0.014568 79.112230 -13.071008 11.233635 2.100049 0.000192 0.007558 81.844989 -12.270543 11.068345 2.125503 -0.000000 0.007513 -0.000001 0.000003 0.000000 -8.207786 -6.751667 -1.599560 -0.077001 -0.000003 0.000080 -0.000002 -44.370110 0.345938 0.153719 -0.000000 -0.000000 0.000000 -44.423679 -3.043532 -0.076700 0.000000 -0.000002 -0.000006 -8.728667 10.710559 -0.000009 -0.000000 -0.000000 -0.000001 -0.000679 9.278123 0.000000 -0.000000 -0.000000 8.207792 -6.751710 -1.599556 -0.074518 -0.000003 0.000081 -0.000002 -44.370014 0.346960 0.148822 0.000002 0.000000 -0.000001 -44.423664 -3.044403 -0.074314 0.000000 -0.000002 -0.000004 -8.728671 10.710558 0.000007 -0.000000 -0.000000 0.000000 -0.000680 9.278137 -0.000000 0.000000 -0.000001 
0.000006 104.270477 1.554256 0.000010 0.000003 -0.000113 -0.000005 10.181587 0.131522 0.000001 -0.000003 0.000084 -0.000000 9.893967 -1.470711 0.000001 0.000000 -0.000000 -0.000000 9.220802 -1.370642 0.000000 -0.000000 -0.000000 0.000001 16.740433 -2.049030 0.000000 -0.000000 -0.000000 0.000000 9.617859 1.685014 0.000000 0.000000 0.000000 0.000002 22.037384 7.501101 0.000000 -0.000000 0.000000 -4.569968 11.014880 -2.160881 0.000008 0.000001 -0.000038 -10.592866 -0.524782 -2.231877 73.726715 34.993859 -26.598252 -27.841526 -0.000006 0.000547 -51.516733 103.806144 63.220531 -28.328817 0.000020 0.000029 -0.000324 -0.000041 0.000002 -2.464410 -1.573820 2.682354 -41.359326 -158.264704 4.934975 -3.215256 -1.872518 1.924610 147.307687 33.357609 28.017327 -2.654960 -1.527872 1.513054 146.047422 27.974107 -27.088870 -2.018821 -1.151981 1.108077 -0.000004 0.000005 -0.000000 -9.108349 -0.517538 2.260160 106.701536 14.745154 -19.793079 -3.700064 0.000317 0.001551 106.004413 12.445911 -16.437663 -2.850075 0.000374 -0.000220 105.434844 10.914017 -14.303260 -2.772171 0.000000 -0.000021 0.000000 -0.000000 0.000000 -9.532562 0.000273 0.000248 93.766790 16.182725 -17.419052 -3.700059 0.000337 0.003981 94.589384 11.772170 -12.645168 -2.950057 0.000320 -0.001809 96.825438 11.797670 -13.273356 -2.946639 0.000003 -0.000162 -0.000001 0.000000 -0.000000 -9.103687 -0.042774 -1.864896 88.126605 19.936526 -19.263000 -3.379340 0.000311 -0.000819 91.366949 10.600330 -10.872742 -2.889776 0.000341 0.000654 97.865013 7.584313 -8.752704 -2.638810 -0.000013 0.000940 -0.000003 0.000001 0.000000 -8.076750 -0.486407 -3.806068 74.033069 20.880496 -15.699174 -3.600049 0.000255 -0.003564 77.370751 11.404886 -8.845874 -2.100022 0.000302 -0.005531 80.860882 6.401226 -5.265965 -2.115758 -0.000056 -0.003682 0.000001 0.000001 -0.000004 4.570446 11.014691 -2.160851 -0.000018 0.000010 -0.000021 10.592430 -0.524467 -2.232372 73.332094 -22.481399 16.832484 27.841833 0.000066 -0.000176 110.110204 -74.689608 95.034023 28.328840 -0.000029 0.000018 0.000019 -0.000087 -0.000001 2.466151 -1.576168 2.681888 -15.689074 156.876973 -55.439098 3.217861 -1.871811 1.916384 161.088741 -25.684529 27.307351 2.656102 -1.528687 1.514462 138.922810 -27.944939 50.837764 2.020895 -1.154085 1.115157 -0.000000 0.000003 0.000004 9.109392 -0.517858 2.259735 87.503022 -18.347008 17.564718 3.700052 0.000154 -0.000473 85.414227 -11.931371 11.034029 2.850034 0.000203 0.000195 85.174207 -9.313892 8.562460 2.774900 -0.000047 -0.000028 -0.000001 -0.000000 0.000001 9.533484 0.000205 -0.000079 87.870274 -17.500640 16.862612 3.700042 0.000196 -0.000376 89.576005 -10.394561 10.315747 2.950035 0.000191 -0.000199 90.895488 -11.162801 11.340447 2.952878 -0.000014 0.000066 -0.000000 -0.000001 0.000001 9.104610 -0.042850 -1.865223 87.822306 -17.087120 16.460495 3.150049 0.000216 -0.000107 92.127483 -11.035823 11.452545 2.950014 0.000180 -0.000081 94.202413 -10.206545 10.981282 2.644326 0.000033 0.000056 0.000003 0.000000 -0.000000 8.077868 -0.486722 -3.806400 78.553172 -19.241200 16.282348 3.600013 0.000188 0.014563 79.744719 -16.204824 14.005114 2.100036 0.000190 0.007552 82.311662 -12.400656 11.273779 2.125520 -0.000015 0.007521 0.000001 -0.000002 -0.000000 -8.207786 -6.751667 -1.599560 -0.077001 -0.000003 0.000080 -0.000002 -44.370110 0.345938 0.153719 -0.000000 -0.000000 0.000000 -44.423679 -3.043532 -0.076700 0.000000 -0.000002 -0.000006 -8.728667 10.710559 -0.000009 -0.000000 -0.000000 -0.000001 -0.000679 9.278123 0.000000 -0.000000 -0.000000 8.207792 -6.751710 -1.599556 -0.074518 -0.000003 0.000081 -0.000002 -44.370014 0.346960 0.148822 0.000002 0.000000 -0.000001 -44.423664 -3.044403 -0.074314 0.000000 -0.000002 -0.000004 -8.728671 10.710558 0.000007 -0.000000 -0.000000 0.000000 -0.000680 9.278137 -0.000000 0.000000 -0.000001 
0.000006 104.270477 1.554256 0.000010 0.000003 -0.000113 -0.000005 10.181587 0.131522 0.000001 -0.000003 0.000084 -0.000000 9.893967 -1.470711 0.000001 0.000000 -0.000000 -0.000000 9.220802 -1.370642 0.000000 -0.000000 -0.000000 0.000001 16.740433 -2.049030 0.000000 -0.000000 -0.000000 0.000000 9.617859 1.685014 0.000000 0.000000 0.000000 0.000002 22.037384 7.501101 0.000000 -0.000000 0.000000 -4.569968 11.014880 -2.160881 0.000008 0.000001 -0.000038 -10.592858 -0.524809 -2.231836 73.960697 42.350533 -32.524148 -27.841524 -0.000002 0.000556 -50.355863 102.469373 60.689707 -28.328821 0.000010 0.000034 -0.000322 -0.000043 0.000007 -2.464380 -1.573820 2.682364 -42.100777 -158.929336 3.424736 -3.215241 -1.872541 1.924634 148.658152 33.409341 25.054452 -2.654956 -1.527881 1.513059 146.984278 27.819719 -27.582397 -2.018842 -1.152008 1.108062 -0.000004 -0.000000 0.000002 -9.108354 -0.517551 2.260156 106.623488 15.574831 -20.864196 -3.700059 0.000312 0.001565 106.362971 13.339108 -17.724792 -2.850084 0.000361 -0.000197 105.598413 11.672648 -15.337620 -2.772155 -0.000016 -0.000023 -0.000001 0.000001 -0.000000 -9.532569 0.000259 0.000244 92.590488 16.938818 -17.860320 -3.700065 0.000321 0.003981 94.918005 12.284001 -13.273601 -2.950063 0.000336 -0.001789 97.601791 12.306103 -14.033016 -2.946621 -0.000000 -0.000151 -0.000000 -0.000002 -0.000001 -9.103688 -0.042769 -1.864874 86.520950 20.077437 -18.872644 -3.379342 0.000320 -0.000811 92.358248 10.533339 -10.991666 -2.889756 0.000343 0.000637 99.590899 7.809195 -9.288240 -2.638805 -0.000027 0.000942 -0.000001 -0.000000 -0.000002 -8.076735 -0.486401 -3.806078 72.977668 20.979556 -15.478155 -3.600044 0.000259 -0.003558 78.027801 11.427362 -8.968218 -2.100029 0.000301 -0.005526 81.812832 6.535390 -5.471101 -2.115777 -0.000054 -0.003678 0.000002 0.000000 -0.000006 4.570446 11.014691 -2.160851 -0.000018 0.000010 -0.000021 10.592466 -0.524473 -2.232411 73.015234 -36.874648 27.722520 27.841841 0.000017 -0.000187 115.159107 -77.298610 103.087055 28.328833 -0.000028 0.000018 0.000021 -0.000091 0.000003 2.466219 -1.576090 2.681858 5.388657 159.278727 -88.357444 3.217816 -1.871769 1.916381 162.729913 -28.561887 14.198933 2.656102 -1.528637 1.514466 141.462193 -27.204229 49.965545 2.020890 -1.154068 1.115140 0.000002 0.000005 0.000006 9.109365 -0.517857 2.259746 90.089123 -20.310896 20.328993 3.700058 0.000169 -0.000473 87.481186 -12.702968 12.176785 2.850054 0.000209 0.000199 85.614762 -10.269358 9.514425 2.774868 -0.000046 -0.000027 -0.000000 -0.000000 -0.000002 9.533447 0.000216 -0.000075 87.726485 -18.656520 17.933838 3.700046 0.000185 -0.000383 87.484942 -11.353432 10.866134 2.950053 0.000180 -0.000213 85.978073 -12.094382 11.282079 2.952851 -0.000014 0.000063 0.000002 -0.000000 -0.000000 9.104582 -0.042855 -1.865206 86.990054 -17.614209 16.727323 3.150029 0.000196 -0.000106 87.549522 -12.063780 11.563799 2.950016 0.000178 -0.000071 86.675948 -11.103735 10.482775 2.644330 0.000018 0.000055 0.000002 0.000000 0.000001 8.077834 -0.486708 -3.806404 79.591081 -18.998176 16.375606 3.600021 0.000159 0.014580 78.274569 -16.362854 13.777870 2.100056 0.000174 0.007565 79.213105 -13.379006 11.494196 2.125515 -0.000001 0.007516 -0.000000 0.000000 0.000002 -8.207786 -6.751667 -1.599560 -0.077001 -0.000003 0.000080 -0.000002 -44.370110 0.345938 0.153719 -0.000000 -0.000000 0.000000 -44.423679 -3.043532 -0.076700 0.000000 -0.000002 -0.000006 -8.728667 10.710559 -0.000009 -0.000000 -0.000000 -0.000001 -0.000679 9.278123 0.000000 -0.000000 -0.000000 8.207792 -6.751710 -1.599556 -0.074518 -0.000003 0.000081 -0.000002 -44.370014 0.346960 0.148822 0.000002 0.000000 -0.000001 -44.423664 -3.044403 -0.074314 0.000000 -0.000002 -0.000004 -8.728671 10.710558 0.000007 -0.000000 -0.000000 0.000000 -0.000680 9.278137 -0.000000 0.000000 -0.000001 
